SplineFontDB: 3.0
FontName: Grotesk-Light
FullName: Grotesk Light
FamilyName: Grotesk Light
Weight: Light
Copyright: Copyright (c) 2010-2016 by Frank Adebiaye. Certains droits re'serve's
Version: 2.0
ItalicAngle: 0
UnderlinePosition: 0
UnderlineWidth: 0
Ascent: 800
Descent: 200
sfntRevision: 0x00020000
LayerCount: 3
Layer: 0 1 "Arri+AOgA-re"  1
Layer: 1 1 "Avant"  0
Layer: 2 1 "Arri+AOgA-re 2"  0
XUID: [1021 248 -1313058504 21072]
FSType: 0
OS2Version: 3
OS2_WeightWidthSlopeOnly: 0
OS2_UseTypoMetrics: 0
CreationTime: 1457292994
ModificationTime: 1463331084
PfmFamily: 17
TTFWeight: 500
TTFWidth: 5
LineGap: 0
VLineGap: 0
Panose: 2 0 6 3 0 0 0 0 0 0
OS2TypoAscent: 800
OS2TypoAOffset: 0
OS2TypoDescent: -200
OS2TypoDOffset: 0
OS2TypoLinegap: 90
OS2WinAscent: 791
OS2WinAOffset: 0
OS2WinDescent: 200
OS2WinDOffset: 0
HheadAscent: 791
HheadAOffset: 0
HheadDescent: -200
HheadDOffset: 0
OS2SubXSize: 650
OS2SubYSize: 700
OS2SubXOff: 0
OS2SubYOff: 140
OS2SupXSize: 650
OS2SupYSize: 700
OS2SupXOff: 0
OS2SupYOff: 480
OS2StrikeYSize: 49
OS2StrikeYPos: 258
OS2Vendor: 'PfEd'
OS2CodePages: 00000001.00000000
OS2UnicodeRanges: 00000023.00000000.00000000.00000000
Lookup: 258 0 0 "'kern' Cr+AOkA-nage horizontal lookups0"  {"sous-table 'kern' Cr+AOkA-nage horizontal lookups0" [150,15,0] } ['kern' ('DFLT' <'dflt' > ) ]
MarkAttachClasses: 1
DEI: 91125
LangName: 1033 "Copyright +AKkA 2010-2016 by Frank Adebiaye. Certains droits r+AOkA-serv+AOkA-s" "" "" "" "" "" "" "" "VTF" "Frank Adebiaye" "" "www.velvetyne.fr" "www.fadebiaye.com" "" "" "" "Grotesk" "Light" 
Encoding: UnicodeBmp
Compacted: 1
UnicodeInterp: none
NameList: Adobe Glyph List
DisplaySize: -48
AntiAlias: 1
FitToEm: 0
WinInfo: 0 38 13
BeginPrivate: 2
BlueValues 13 [0 0 649 650]
BlueShift 1 0
EndPrivate
GridOrder2: 1
Grid
-1000 648 m 1
 2000 648 l 1
EndSplineSet
BeginChars: 65537 65

StartChar: .notdef
Encoding: 65536 -1 0
Width: 500
Flags: W
LayerCount: 3
Fore
SplineSet
50 0 m 1,0,-1
 450 0 l 1,1,-1
 450 533 l 1,2,-1
 50 533 l 1,3,-1
 50 0 l 1,0,-1
100 50 m 1,4,-1
 100 483 l 1,5,-1
 400 483 l 1,6,-1
 400 50 l 1,7,-1
 100 50 l 1,4,-1
EndSplineSet
Validated: 9
EndChar

StartChar: A
Encoding: 65 65 1
Width: 742
VWidth: 0
GlyphClass: 2
Flags: W
LayerCount: 3
Fore
SplineSet
427 648 m 5,0,-1
 642 0 l 1,1,-1
 585 0 l 1,2,-1
 533 161 l 1,3,-1
 211 161 l 1,4,-1
 156 0 l 1,5,-1
 100 0 l 1,6,-1
 317 648 l 1,7,-1
 427 648 l 5,0,-1
229 219 m 5,8,-1
 512 219 l 1,9,-1
 387 593 l 1,10,-1
 354 593 l 1,11,-1
 229 219 l 5,8,-1
EndSplineSet
Validated: 1
EndChar

StartChar: B
Encoding: 66 66 2
Width: 639
VWidth: 0
GlyphClass: 2
Flags: W
LayerCount: 3
Fore
SplineSet
429 411 m 5,0,1
 481 374 481 374 509 326 c 1,2,3
 539 278 539 278 539 219 c 0,4,5
 539 161 539 161 509 110 c 0,6,7
 479 60 479 60 428 30 c 128,-1,8
 377 0 377 0 319 0 c 2,9,-1
 100 0 l 1,10,-1
 100 649 l 1,11,-1
 210 649 l 2,12,13
 270 649 270 649 319 621 c 1,14,15
 371 593 371 593 399 545 c 1,16,17
 429 497 429 497 429 439 c 2,18,-1
 429 411 l 5,0,1
155 274 m 5,19,-1
 210 274 l 2,20,21
 263 274 263 274 301 297 c 1,22,23
 338 321 338 321 356 358 c 0,24,25
 374 395.5 374 395.5 374 439 c 0,26,27
 374 481 374 481 352 515 c 0,28,29
 329.5 551 329.5 551 292 572 c 1,30,31
 255 594 255 594 210 594 c 2,32,-1
 155 594 l 1,33,-1
 155 274 l 5,19,-1
319 55 m 6,34,35
 365 55 365 55 399 77 c 1,36,37
 437 100 437 100 455 136 c 0,38,39
 475 174 475 174 475 219 c 0,40,41
 475 259 475 259 457 292 c 1,42,43
 441 325 441 325 411 347 c 1,44,45
 383 291 383 291 329 254 c 1,46,47
 276 219 276 219 210 219 c 2,48,-1
 155 219 l 1,49,-1
 155 55 l 1,50,-1
 319 55 l 6,34,35
EndSplineSet
Validated: 524289
EndChar

StartChar: C
Encoding: 67 67 3
Width: 639
VWidth: 0
GlyphClass: 2
Flags: W
LayerCount: 3
Fore
SplineSet
539 594 m 5,0,-1
 429 594 l 2,1,2
 353 594 353 594 290 558 c 1,3,4
 227 523.5 227 523.5 191 462 c 0,5,6
 155 401 155 401 155 329 c 0,7,8
 155 253 155 253 191 190 c 128,-1,9
 227 127 227 127 290 91 c 128,-1,10
 353 55 353 55 429 55 c 2,11,-1
 539 55 l 1,12,-1
 539 0 l 1,13,-1
 429 0 l 2,14,15
 340 0 340 0 263 44 c 0,16,17
 188 88 188 88 144 163 c 0,18,19
 100 240 100 240 100 329 c 0,20,21
 100 414 100 414 144 488 c 0,22,23
 187 561 187 561 263 605 c 0,24,25
 340 649 340 649 429 649 c 2,26,-1
 539 649 l 1,27,-1
 539 594 l 5,0,-1
EndSplineSet
Validated: 524289
EndChar

StartChar: D
Encoding: 68 68 4
Width: 639
VWidth: 0
GlyphClass: 2
Flags: W
LayerCount: 3
Fore
SplineSet
209 649 m 6,0,1
 298 649 298 649 375 605 c 0,2,3
 451.5 561.5 451.5 561.5 495 488 c 0,4,5
 539 414 539 414 539 329 c 0,6,7
 539 240 539 240 495 163 c 0,8,9
 451 87 451 87 375 44 c 0,10,11
 299 0 299 0 209 0 c 2,12,-1
 100 0 l 1,13,-1
 100 649 l 1,14,-1
 209 649 l 6,0,1
209 55 m 6,15,16
 280 55 280 55 342 91 c 0,17,18
 403 127 403 127 439 190 c 128,-1,19
 475 253 475 253 475 329 c 0,20,21
 475 401 475 401 439 462 c 0,22,23
 403 524 403 524 342 558 c 1,24,25
 281 594 281 594 209 594 c 2,26,-1
 155 594 l 1,27,-1
 155 55 l 1,28,-1
 209 55 l 6,15,16
EndSplineSet
Validated: 524289
EndChar

StartChar: E
Encoding: 69 69 5
Width: 529
VWidth: 0
GlyphClass: 2
Flags: W
LayerCount: 3
Fore
SplineSet
429 649 m 5,0,-1
 429 594 l 1,1,-1
 155 594 l 1,2,-1
 155 329 l 1,3,-1
 374 329 l 1,4,-1
 374 274 l 1,5,-1
 155 274 l 1,6,-1
 155 55 l 1,7,-1
 429 55 l 1,8,-1
 429 0 l 1,9,-1
 100 0 l 1,10,-1
 100 649 l 1,11,-1
 429 649 l 5,0,-1
EndSplineSet
Validated: 1
EndChar

StartChar: F
Encoding: 70 70 6
Width: 529
VWidth: 0
GlyphClass: 2
Flags: W
LayerCount: 3
Fore
SplineSet
429 649 m 5,0,-1
 429 593 l 1,1,-1
 155 593 l 1,2,-1
 155 329 l 1,3,-1
 429 329 l 1,4,-1
 429 274 l 1,5,-1
 155 274 l 1,6,-1
 155 0 l 1,7,-1
 100 0 l 1,8,-1
 100 649 l 1,9,-1
 429 649 l 5,0,-1
EndSplineSet
Validated: 1
EndChar

StartChar: G
Encoding: 71 71 7
Width: 639
VWidth: 0
GlyphClass: 2
Flags: W
LayerCount: 3
Fore
SplineSet
539 594 m 5,0,-1
 429 594 l 2,1,2
 353 594 353 594 290 558 c 1,3,4
 227 523.5 227 523.5 191 462 c 0,5,6
 155 401 155 401 155 329 c 0,7,8
 155 253 155 253 191 190 c 128,-1,9
 227 127 227 127 290 91 c 128,-1,10
 353 55 353 55 429 55 c 2,11,-1
 484 55 l 1,12,-1
 484 274 l 1,13,-1
 539 274 l 1,14,-1
 539 0 l 1,15,-1
 429 0 l 2,16,17
 340 0 340 0 263 44 c 0,18,19
 188 88 188 88 144 163 c 0,20,21
 100 240 100 240 100 329 c 0,22,23
 100 414 100 414 144 488 c 0,24,25
 187 561 187 561 263 605 c 0,26,27
 340 649 340 649 429 649 c 2,28,-1
 539 649 l 1,29,-1
 539 594 l 5,0,-1
EndSplineSet
Validated: 524289
EndChar

StartChar: H
Encoding: 72 72 8
Width: 629
VWidth: 0
GlyphClass: 2
Flags: W
LayerCount: 3
Fore
SplineSet
155 648 m 5,0,-1
 155 345 l 1,1,-1
 474 345 l 1,2,-1
 474 648 l 1,3,-1
 529 648 l 1,4,-1
 529 0 l 1,5,-1
 474 0 l 1,6,-1
 474 291 l 1,7,-1
 155 291 l 1,8,-1
 155 0 l 1,9,-1
 100 0 l 1,10,-1
 100 648 l 1,11,-1
 155 648 l 5,0,-1
EndSplineSet
Validated: 1
EndChar

StartChar: I
Encoding: 73 73 9
Width: 258
VWidth: 0
GlyphClass: 2
Flags: W
LayerCount: 3
Fore
SplineSet
100 648 m 5,0,-1
 158 648 l 1,1,-1
 158 0 l 1,2,-1
 100 0 l 1,3,-1
 100 648 l 5,0,-1
EndSplineSet
Validated: 1
EndChar

StartChar: J
Encoding: 74 74 10
Width: 423
VWidth: 0
GlyphClass: 2
Flags: W
LayerCount: 3
Fore
SplineSet
323 648 m 5,0,-1
 323 95 l 2,1,2
 323 52 323 52 291 17 c 0,3,4
 260 -16 260 -16 212 -16 c 0,5,6
 180 -16 180 -16 155 0 c 1,7,8
 128 16 128 16 114 40 c 0,9,10
 100 66 100 66 100 95 c 2,11,-1
 100 205 l 1,12,-1
 157 205 l 1,13,-1
 157 95 l 2,14,15
 157 73 157 73 173 60 c 128,-1,16
 189 47 189 47 212 47 c 0,17,18
 234 47 234 47 251 61 c 128,-1,19
 268 75 268 75 268 95 c 2,20,-1
 268 648 l 1,21,-1
 323 648 l 5,0,-1
EndSplineSet
Validated: 1
EndChar

StartChar: K
Encoding: 75 75 11
Width: 639
VWidth: 0
GlyphClass: 2
Flags: W
LayerCount: 3
Fore
SplineSet
335 283 m 1,0,-1
 158 283 l 1,1,-1
 158 0 l 1,2,-1
 100 0 l 1,3,-1
 100 650 l 1,4,-1
 158 650 l 1,5,-1
 158 330 l 1,6,-1
 318 330 l 1,7,-1
 456 649 l 1,8,-1
 523 649 l 1,9,-1
 376 331 l 1,10,-1
 539 0 l 1,11,-1
 478 0 l 1,12,-1
 335 283 l 1,0,-1
EndSplineSet
Validated: 1
EndChar

StartChar: L
Encoding: 76 76 12
Width: 584
VWidth: 0
GlyphClass: 2
Flags: W
LayerCount: 3
Fore
SplineSet
100 649 m 5,0,-1
 158 649 l 1,1,-1
 158 57 l 1,2,-1
 484 57 l 1,3,-1
 484 0 l 1,4,-1
 100 0 l 1,5,-1
 100 649 l 5,0,-1
EndSplineSet
Validated: 1
EndChar

StartChar: M
Encoding: 77 77 13
Width: 850
VWidth: 0
GlyphClass: 2
Flags: W
LayerCount: 3
Fore
SplineSet
100 648 m 5,0,-1
 217 648 l 1,1,-1
 424 386 l 1,2,-1
 633 648 l 1,3,-1
 750 648 l 1,4,-1
 750 0 l 1,5,-1
 693 0 l 1,6,-1
 693 592 l 1,7,-1
 661 592 l 1,8,-1
 452 322 l 1,9,-1
 452 322 l 1,10,-1
 397 322 l 1,11,-1
 397 322 l 1,12,-1
 189 592 l 1,13,-1
 159 592 l 1,14,-1
 159 0 l 1,15,-1
 100 0 l 1,16,-1
 100 648 l 5,0,-1
EndSplineSet
Validated: 5
EndChar

StartChar: N
Encoding: 78 78 14
Width: 634
VWidth: 0
GlyphClass: 2
Flags: W
LayerCount: 3
Fore
SplineSet
100 649 m 5,0,-1
 215 649 l 1,1,-1
 428 379 l 1,2,-1
 477 379 l 1,3,-1
 477 649 l 1,4,-1
 534 649 l 1,5,-1
 534 0 l 1,6,-1
 477 0 l 1,7,-1
 477 328 l 1,8,-1
 395 328 l 1,9,-1
 395 329 l 1,10,-1
 194 593 l 1,11,-1
 158 593 l 1,12,-1
 158 0 l 1,13,-1
 100 0 l 1,14,-1
 100 649 l 5,0,-1
EndSplineSet
Validated: 1
EndChar

StartChar: O
Encoding: 79 79 15
Width: 688
VWidth: 0
GlyphClass: 2
Flags: W
LayerCount: 3
Fore
SplineSet
344 660 m 4,0,1
 442 660 442 660 516 588 c 0,2,3
 586 519 586 519 588 417 c 1,4,-1
 588 233 l 1,5,6
 586 130 586 130 516 61 c 0,7,8
 443 -10 443 -10 344 -10 c 128,-1,9
 245 -10 245 -10 172 61 c 0,10,11
 100 132 100 132 100 233 c 2,12,-1
 100 417 l 2,13,14
 100 518 100 518 172 589 c 0,15,16
 245 660 245 660 344 660 c 4,0,1
347 600 m 4,17,18
 266 600 266 600 213 548 c 0,19,20
 159 496 159 496 159 417 c 2,21,-1
 159 233 l 2,22,23
 159 154 159 154 213 102 c 0,24,25
 266 50 266 50 347 50 c 0,26,27
 427 50 427 50 478 102 c 0,28,29
 529 155 529 155 529 233 c 2,30,-1
 529 417 l 2,31,32
 529 495 529 495 478 548 c 0,33,34
 427 600 427 600 347 600 c 4,17,18
EndSplineSet
Validated: 1
EndChar

StartChar: P
Encoding: 80 80 16
Width: 636
VWidth: 0
GlyphClass: 2
Flags: W
LayerCount: 3
Fore
SplineSet
316 649 m 6,0,1
 376 649 376 649 426 619 c 1,2,3
 477 591 477 591 506 540 c 1,4,5
 536 490 536 490 536 433 c 0,6,7
 536 373 536 373 506 322 c 0,8,9
 477 272 477 272 426 242 c 0,10,11
 376 213 376 213 316 213 c 2,12,-1
 158 213 l 1,13,-1
 158 0 l 1,14,-1
 100 0 l 1,15,-1
 100 649 l 1,16,-1
 316 649 l 6,0,1
158 268 m 5,17,-1
 319 268 l 2,18,19
 363 268 363 268 400 290 c 128,-1,20
 437 312 437 312 459 349 c 128,-1,21
 481 386 481 386 481 430 c 0,22,23
 481 473 481 473 459 510 c 128,-1,24
 437 547 437 547 400 569 c 128,-1,25
 363 591 363 591 319 591 c 2,26,-1
 158 591 l 1,27,-1
 158 268 l 5,17,-1
EndSplineSet
Validated: 1
EndChar

StartChar: Q
Encoding: 81 81 17
Width: 731
VWidth: 0
GlyphClass: 2
Flags: W
LayerCount: 3
Fore
SplineSet
344 656 m 132,-1,1
 443 656 443 656 516 585 c 0,2,3
 586 516 586 516 588 413 c 1,4,-1
 588 229 l 2,5,6
 588 154 588 154 544 92 c 1,7,-1
 631 0 l 1,8,-1
 558 0 l 1,9,-1
 510 52 l 1,10,11
 440 -14 440 -14 344 -14 c 0,12,13
 245 -14 245 -14 172 57 c 0,14,15
 100 128 100 128 100 229 c 2,16,-1
 100 413 l 2,17,18
 100 514 100 514 172 585 c 0,19,0
 245 656 245 656 344 656 c 132,-1,1
346 596 m 132,-1,21
 266 596 266 596 213 544 c 0,22,23
 158 491 158 491 158 413 c 2,24,-1
 158 229 l 2,25,26
 158 151 158 151 213 98 c 0,27,28
 266 46 266 46 346 46 c 128,-1,29
 426 46 426 46 477 98 c 0,30,31
 529 152 529 152 529 229 c 2,32,-1
 529 413 l 2,33,34
 529 490 529 490 477 544 c 0,35,20
 426 596 426 596 346 596 c 132,-1,21
EndSplineSet
Validated: 1
EndChar

StartChar: R
Encoding: 82 82 18
Width: 636
VWidth: 0
GlyphClass: 2
Flags: W
LayerCount: 3
Fore
SplineSet
510 0 m 5,0,-1
 443 0 l 1,1,-1
 277 214 l 1,2,-1
 158 214 l 1,3,-1
 158 0 l 1,4,-1
 100 0 l 1,5,-1
 100 649 l 1,6,-1
 316 649 l 2,7,8
 376 649 376 649 426 619 c 1,9,10
 477 591 477 591 506 540 c 1,11,12
 536 490 536 490 536 433 c 0,13,14
 536 369 536 369 507 319 c 0,15,16
 479 270 479 270 433 241 c 1,17,18
 388 214 388 214 343 214 c 1,19,-1
 510 0 l 5,0,-1
319 268 m 6,20,21
 363 268 363 268 400 290 c 128,-1,22
 437 312 437 312 459 349 c 128,-1,23
 481 386 481 386 481 430 c 0,24,25
 481 473 481 473 459 510 c 128,-1,26
 437 547 437 547 400 569 c 128,-1,27
 363 591 363 591 319 591 c 2,28,-1
 158 591 l 1,29,-1
 158 268 l 1,30,-1
 319 268 l 6,20,21
EndSplineSet
Validated: 1
EndChar

StartChar: S
Encoding: 83 83 19
Width: 632
VWidth: 0
GlyphClass: 2
Flags: W
LayerCount: 3
Fore
SplineSet
425 649 m 5,0,-1
 425 594 l 1,1,-1
 315 594 l 2,2,3
 272 594 272 594 235 572 c 128,-1,4
 198 550 198 550 176 513 c 0,5,6
 155 478 155 478 155 433 c 0,7,8
 155 387 155 387 176 352 c 0,9,10
 198 315 198 315 235 293 c 128,-1,11
 272 271 272 271 315 271 c 1,12,-1
 315 216 l 1,13,14
 254 216 254 216 204 245 c 0,15,16
 158 271 158 271 128 324 c 0,17,18
 100 373 100 373 100 433 c 0,19,20
 100 490 100 490 129 540 c 0,21,22
 158 591 158 591 207 619 c 1,23,24
 256.5 649 256.5 649 315 649 c 2,25,-1
 425 649 l 5,0,-1
315 433 m 5,26,27
 374 433 374 433 424 404 c 128,-1,28
 474 375 474 375 503 325 c 128,-1,29
 532 275 532 275 532 216 c 0,30,31
 532 157.5 532 157.5 502 108 c 1,32,33
 473 58 473 58 423 29 c 128,-1,34
 373 0 373 0 315 0 c 2,35,-1
 154 0 l 1,36,-1
 154 55 l 1,37,-1
 315 55 l 2,38,39
 359 55 359 55 396 77 c 128,-1,40
 433 99 433 99 455 136 c 128,-1,41
 477 173 477 173 477 216 c 0,42,43
 477 260 477 260 455 297 c 128,-1,44
 433 334 433 334 396 356 c 128,-1,45
 359 378 359 378 315 378 c 1,46,-1
 315 433 l 5,26,27
EndSplineSet
Validated: 524289
EndChar

StartChar: T
Encoding: 84 84 20
Width: 634
VWidth: 0
GlyphClass: 2
Flags: W
LayerCount: 3
Fore
SplineSet
100 649 m 5,0,-1
 534 649 l 1,1,-1
 534 591 l 1,2,-1
 344 591 l 1,3,-1
 344 0 l 1,4,-1
 286 0 l 1,5,-1
 286 590 l 1,6,-1
 100 590 l 1,7,-1
 100 649 l 5,0,-1
EndSplineSet
Validated: 1
EndChar

StartChar: U
Encoding: 85 85 21
Width: 688
VWidth: 0
GlyphClass: 2
Flags: W
LayerCount: 3
Fore
SplineSet
529 649 m 5,0,-1
 588 649 l 1,1,-1
 588 231 l 1,2,3
 586.5 130.5 586.5 130.5 516 60 c 1,4,5
 442 -12 442 -12 344 -12 c 128,-1,6
 246 -12 246 -12 172 60 c 0,7,8
 100 130.5 100 130.5 100 231 c 1,9,-1
 100 231 l 1,10,-1
 100 649 l 1,11,-1
 158 649 l 1,12,-1
 158 231 l 1,13,-1
 158 231 l 1,14,15
 158 153 158 153 213 100 c 0,16,17
 266 48 266 48 346 48 c 128,-1,18
 426 48 426 48 477 100 c 0,19,20
 529 154 529 154 529 231 c 2,21,-1
 529 649 l 5,0,-1
EndSplineSet
Validated: 524293
EndChar

StartChar: V
Encoding: 86 86 22
Width: 747
VWidth: 0
GlyphClass: 2
Flags: W
LayerCount: 3
Fore
SplineSet
431 0 m 5,0,-1
 314 0 l 1,1,-1
 100 649 l 1,2,-1
 154 649 l 1,3,-1
 351 54 l 1,4,-1
 394 54 l 1,5,-1
 593 649 l 1,6,-1
 647 649 l 1,7,-1
 431 0 l 5,0,-1
EndSplineSet
Validated: 1
EndChar

StartChar: W
Encoding: 87 87 23
Width: 957
VWidth: 0
GlyphClass: 2
Flags: W
LayerCount: 3
Fore
SplineSet
857 649 m 1,0,-1
 647 0 l 1,1,-1
 537 0 l 1,2,-1
 483 156 l 1,3,-1
 429 0 l 1,4,-1
 319 0 l 1,5,-1
 100 649 l 1,6,-1
 154 649 l 1,7,-1
 356 54 l 1,8,-1
 392 54 l 1,9,-1
 455 246 l 1,10,-1
 319 649 l 1,11,-1
 374 649 l 1,12,-1
 483 329 l 1,13,-1
 593 649 l 1,14,-1
 647 649 l 1,15,-1
 511 246 l 1,16,-1
 575 54 l 1,17,-1
 611 54 l 1,18,-1
 803 649 l 1,19,-1
 857 649 l 1,0,-1
EndSplineSet
Validated: 1
EndChar

StartChar: X
Encoding: 88 88 24
Width: 635
VWidth: 0
GlyphClass: 2
Flags: W
LayerCount: 3
Fore
SplineSet
535 649 m 5,0,-1
 377 325 l 1,1,-1
 535 0 l 1,2,-1
 481 0 l 1,3,-1
 325 295 l 1,4,-1
 310 295 l 1,5,-1
 158 0 l 1,6,-1
 100 0 l 1,7,-1
 259 325 l 1,8,-1
 101 649 l 1,9,-1
 163 649 l 1,10,-1
 306 353 l 1,11,-1
 329 353 l 1,12,-1
 475 649 l 1,13,-1
 535 649 l 5,0,-1
EndSplineSet
Validated: 1
EndChar

StartChar: Y
Encoding: 89 89 25
Width: 633
VWidth: 0
GlyphClass: 2
Flags: W
LayerCount: 3
Fore
SplineSet
100 649 m 5,0,-1
 166 649 l 1,1,-1
 317 343 l 1,2,-1
 471 649 l 1,3,-1
 533 648 l 1,4,-1
 346 266 l 1,5,-1
 346 2 l 1,6,-1
 346 1 l 1,7,-1
 346 0 l 1,8,-1
 288 0 l 1,9,-1
 288 2 l 1,10,-1
 288 266 l 1,11,-1
 100 649 l 5,0,-1
EndSplineSet
Validated: 1
EndChar

StartChar: Z
Encoding: 90 90 26
Width: 637
VWidth: 0
GlyphClass: 2
Flags: W
LayerCount: 3
Fore
SplineSet
100 649 m 5,0,-1
 537 649 l 1,1,-1
 196 54 l 1,2,-1
 537 54 l 1,3,-1
 537 0 l 1,4,-1
 100 0 l 1,5,-1
 449 594 l 1,6,-1
 100 594 l 1,7,-1
 100 649 l 5,0,-1
EndSplineSet
Validated: 1
EndChar

StartChar: a
Encoding: 97 97 27
Width: 742
VWidth: 0
GlyphClass: 2
Flags: W
LayerCount: 3
Fore
SplineSet
427 648 m 5,0,-1
 642 0 l 1,1,-1
 585 0 l 1,2,-1
 533 161 l 1,3,-1
 211 161 l 1,4,-1
 156 0 l 1,5,-1
 100 0 l 1,6,-1
 317 648 l 1,7,-1
 427 648 l 5,0,-1
229 219 m 5,8,-1
 512 219 l 1,9,-1
 387 593 l 1,10,-1
 354 593 l 1,11,-1
 229 219 l 5,8,-1
EndSplineSet
Validated: 1
EndChar

StartChar: b
Encoding: 98 98 28
Width: 639
VWidth: 0
GlyphClass: 2
Flags: W
LayerCount: 3
Fore
SplineSet
429 411 m 5,0,1
 481 374 481 374 509 326 c 1,2,3
 539 278 539 278 539 219 c 0,4,5
 539 161 539 161 509 110 c 0,6,7
 479 60 479 60 428 30 c 128,-1,8
 377 0 377 0 319 0 c 2,9,-1
 100 0 l 1,10,-1
 100 649 l 1,11,-1
 210 649 l 2,12,13
 270 649 270 649 319 621 c 1,14,15
 371 593 371 593 399 545 c 1,16,17
 429 497 429 497 429 439 c 2,18,-1
 429 411 l 5,0,1
155 274 m 5,19,-1
 210 274 l 2,20,21
 263 274 263 274 301 297 c 1,22,23
 338 321 338 321 356 358 c 0,24,25
 374 395.5 374 395.5 374 439 c 0,26,27
 374 481 374 481 352 515 c 0,28,29
 329.5 551 329.5 551 292 572 c 1,30,31
 255 594 255 594 210 594 c 2,32,-1
 155 594 l 1,33,-1
 155 274 l 5,19,-1
319 55 m 6,34,35
 365 55 365 55 399 77 c 1,36,37
 437 100 437 100 455 136 c 0,38,39
 475 174 475 174 475 219 c 0,40,41
 475 259 475 259 457 292 c 1,42,43
 441 325 441 325 411 347 c 1,44,45
 383 291 383 291 329 254 c 1,46,47
 276 219 276 219 210 219 c 2,48,-1
 155 219 l 1,49,-1
 155 55 l 1,50,-1
 319 55 l 6,34,35
EndSplineSet
Validated: 524289
EndChar

StartChar: c
Encoding: 99 99 29
Width: 639
VWidth: 0
GlyphClass: 2
Flags: W
LayerCount: 3
Fore
SplineSet
539 594 m 5,0,-1
 429 594 l 2,1,2
 353 594 353 594 290 558 c 1,3,4
 227 523.5 227 523.5 191 462 c 0,5,6
 155 401 155 401 155 329 c 0,7,8
 155 253 155 253 191 190 c 128,-1,9
 227 127 227 127 290 91 c 128,-1,10
 353 55 353 55 429 55 c 2,11,-1
 539 55 l 1,12,-1
 539 0 l 1,13,-1
 429 0 l 2,14,15
 340 0 340 0 263 44 c 0,16,17
 188 88 188 88 144 163 c 0,18,19
 100 240 100 240 100 329 c 0,20,21
 100 414 100 414 144 488 c 0,22,23
 187 561 187 561 263 605 c 0,24,25
 340 649 340 649 429 649 c 2,26,-1
 539 649 l 1,27,-1
 539 594 l 5,0,-1
EndSplineSet
Validated: 524289
EndChar

StartChar: d
Encoding: 100 100 30
Width: 639
VWidth: 0
GlyphClass: 2
Flags: W
LayerCount: 3
Fore
SplineSet
209 649 m 6,0,1
 298 649 298 649 375 605 c 0,2,3
 451.5 561.5 451.5 561.5 495 488 c 0,4,5
 539 414 539 414 539 329 c 0,6,7
 539 240 539 240 495 163 c 0,8,9
 451 87 451 87 375 44 c 0,10,11
 299 0 299 0 209 0 c 2,12,-1
 100 0 l 1,13,-1
 100 649 l 1,14,-1
 209 649 l 6,0,1
209 55 m 6,15,16
 280 55 280 55 342 91 c 0,17,18
 403 127 403 127 439 190 c 128,-1,19
 475 253 475 253 475 329 c 0,20,21
 475 401 475 401 439 462 c 0,22,23
 403 524 403 524 342 558 c 1,24,25
 281 594 281 594 209 594 c 2,26,-1
 155 594 l 1,27,-1
 155 55 l 1,28,-1
 209 55 l 6,15,16
EndSplineSet
Validated: 524289
EndChar

StartChar: e
Encoding: 101 101 31
Width: 529
VWidth: 0
GlyphClass: 2
Flags: W
LayerCount: 3
Fore
SplineSet
429 649 m 5,0,-1
 429 594 l 1,1,-1
 155 594 l 1,2,-1
 155 329 l 1,3,-1
 374 329 l 1,4,-1
 374 274 l 1,5,-1
 155 274 l 1,6,-1
 155 55 l 1,7,-1
 429 55 l 1,8,-1
 429 0 l 1,9,-1
 100 0 l 1,10,-1
 100 649 l 1,11,-1
 429 649 l 5,0,-1
EndSplineSet
Validated: 1
EndChar

StartChar: eight
Encoding: 56 56 32
Width: 636
VWidth: 0
GlyphClass: 2
Flags: W
LayerCount: 3
Fore
SplineSet
319 671 m 4,0,1
 376 671 376 671 426 641 c 1,2,3
 477 612 477 612 505 561 c 1,4,5
 533.5 513 533.5 513 535 459 c 1,6,-1
 535 391 l 1,7,-1
 513 391 l 1,8,9
 534 351 534 351 536 300 c 1,10,-1
 536 206 l 2,11,12
 536 146 536 146 506 96 c 1,13,14
 477 44 477 44 428 16 c 1,15,16
 378 -14 378 -14 321 -14 c 0,17,18
 261 -14 261 -14 210 16 c 0,19,20
 160 45 160 45 130 96 c 0,21,22
 101 146 101 146 101 206 c 2,23,-1
 101 300 l 1,24,25
 103 350 103 350 123 391 c 1,26,-1
 100 391 l 1,27,-1
 100 459 l 1,28,29
 101 512 101 512 129 561 c 0,30,31
 159 612 159 612 209 641 c 0,32,33
 260 671 260 671 319 671 c 4,0,1
316 616 m 132,-1,35
 273 616 273 616 236 594 c 128,-1,36
 199 572 199 572 177 535 c 128,-1,37
 155 498 155 498 155 453 c 2,38,-1
 155 437 l 1,39,40
 180 465 180 465 210 482 c 0,41,42
 261 512 261 512 321 512 c 0,43,44
 378 512 378 512 428 482 c 0,45,46
 456 466 456 466 477 442 c 1,47,-1
 477 453 l 2,48,49
 477 498 477 498 455 535 c 128,-1,50
 433 572 433 572 396 594 c 128,-1,34
 359 616 359 616 316 616 c 132,-1,35
318 457 m 4,51,52
 274 457 274 457 237 435 c 128,-1,53
 200 413 200 413 178 376 c 128,-1,54
 156 339 156 339 156 294 c 2,55,-1
 156 203 l 2,56,57
 156 159 156 159 178 122 c 128,-1,58
 200 85 200 85 237 63 c 128,-1,59
 274 41 274 41 318 41 c 0,60,61
 361 41 361 41 398 63 c 128,-1,62
 435 85 435 85 457 122 c 128,-1,63
 479 159 479 159 479 203 c 2,64,-1
 479 294 l 2,65,66
 479 337 479 337 457 376 c 0,67,68
 435 413 435 413 398 435 c 128,-1,69
 361 457 361 457 318 457 c 4,51,52
EndSplineSet
Validated: 524289
EndChar

StartChar: f
Encoding: 102 102 33
Width: 529
VWidth: 0
GlyphClass: 2
Flags: W
LayerCount: 3
Fore
SplineSet
429 649 m 5,0,-1
 429 593 l 1,1,-1
 155 593 l 1,2,-1
 155 329 l 1,3,-1
 429 329 l 1,4,-1
 429 274 l 1,5,-1
 155 274 l 1,6,-1
 155 0 l 1,7,-1
 100 0 l 1,8,-1
 100 649 l 1,9,-1
 429 649 l 5,0,-1
EndSplineSet
Validated: 1
EndChar

StartChar: five
Encoding: 53 53 34
Width: 583
VWidth: 0
GlyphClass: 2
Flags: W
LayerCount: 3
Fore
SplineSet
100 649 m 5,0,-1
 431 649 l 1,1,-1
 431 591 l 1,2,-1
 162 591 l 1,3,-1
 162 436 l 1,4,-1
 266 436 l 2,5,6
 357 436 357 436 420 371 c 128,-1,7
 483 306 483 306 483 217 c 0,8,9
 483 126 483 126 420 63 c 128,-1,10
 357 0 357 0 266 0 c 2,11,-1
 100 0 l 1,12,-1
 100 55 l 1,13,-1
 266 55 l 2,14,15
 333.5 55 333.5 55 380 100 c 0,16,17
 427 145 427 145 427 211 c 128,-1,18
 427 277 427 277 380 326 c 128,-1,19
 333 375 333 375 266 375 c 2,20,-1
 100 375 l 1,21,-1
 100 649 l 5,0,-1
EndSplineSet
Validated: 524289
EndChar

StartChar: four
Encoding: 52 52 35
Width: 637
VWidth: 0
GlyphClass: 2
Flags: W
LayerCount: 3
Fore
SplineSet
425 143 m 5,0,-1
 100 143 l 1,1,-1
 212 649 l 1,2,-1
 273 649 l 1,3,-1
 173 202 l 1,4,-1
 425 202 l 1,5,-1
 425 489 l 1,6,-1
 483 489 l 1,7,-1
 484 202 l 1,8,-1
 537 202 l 1,9,-1
 537 143 l 1,10,-1
 484 143 l 1,11,-1
 483 0 l 1,12,-1
 425 0 l 1,13,-1
 425 143 l 5,0,-1
EndSplineSet
Validated: 1
EndChar

StartChar: g
Encoding: 103 103 36
Width: 639
VWidth: 0
GlyphClass: 2
Flags: W
LayerCount: 3
Fore
SplineSet
539 594 m 5,0,-1
 429 594 l 2,1,2
 353 594 353 594 290 558 c 1,3,4
 227 523.5 227 523.5 191 462 c 0,5,6
 155 401 155 401 155 329 c 0,7,8
 155 253 155 253 191 190 c 128,-1,9
 227 127 227 127 290 91 c 128,-1,10
 353 55 353 55 429 55 c 2,11,-1
 484 55 l 1,12,-1
 484 274 l 1,13,-1
 539 274 l 1,14,-1
 539 0 l 1,15,-1
 429 0 l 2,16,17
 340 0 340 0 263 44 c 0,18,19
 188 88 188 88 144 163 c 0,20,21
 100 240 100 240 100 329 c 0,22,23
 100 414 100 414 144 488 c 0,24,25
 187 561 187 561 263 605 c 0,26,27
 340 649 340 649 429 649 c 2,28,-1
 539 649 l 1,29,-1
 539 594 l 5,0,-1
EndSplineSet
Validated: 524289
EndChar

StartChar: h
Encoding: 104 104 37
Width: 629
VWidth: 0
GlyphClass: 2
Flags: W
LayerCount: 3
Fore
SplineSet
155 648 m 5,0,-1
 155 345 l 1,1,-1
 474 345 l 1,2,-1
 474 648 l 1,3,-1
 529 648 l 1,4,-1
 529 0 l 1,5,-1
 474 0 l 1,6,-1
 474 291 l 1,7,-1
 155 291 l 1,8,-1
 155 0 l 1,9,-1
 100 0 l 1,10,-1
 100 648 l 1,11,-1
 155 648 l 5,0,-1
EndSplineSet
Validated: 1
EndChar

StartChar: i
Encoding: 105 105 38
Width: 258
VWidth: 0
GlyphClass: 2
Flags: W
LayerCount: 3
Fore
SplineSet
100 648 m 5,0,-1
 158 648 l 1,1,-1
 158 0 l 1,2,-1
 100 0 l 1,3,-1
 100 648 l 5,0,-1
EndSplineSet
Validated: 1
EndChar

StartChar: j
Encoding: 106 106 39
Width: 423
VWidth: 0
GlyphClass: 2
Flags: W
LayerCount: 3
Fore
SplineSet
323 648 m 5,0,-1
 323 95 l 2,1,2
 323 52 323 52 291 17 c 0,3,4
 260 -16 260 -16 212 -16 c 0,5,6
 180 -16 180 -16 155 0 c 1,7,8
 128 16 128 16 114 40 c 0,9,10
 100 66 100 66 100 95 c 2,11,-1
 100 205 l 1,12,-1
 157 205 l 1,13,-1
 157 95 l 2,14,15
 157 73 157 73 173 60 c 128,-1,16
 189 47 189 47 212 47 c 0,17,18
 234 47 234 47 251 61 c 128,-1,19
 268 75 268 75 268 95 c 2,20,-1
 268 648 l 1,21,-1
 323 648 l 5,0,-1
EndSplineSet
Validated: 1
EndChar

StartChar: k
Encoding: 107 107 40
Width: 639
VWidth: 0
GlyphClass: 2
Flags: W
LayerCount: 3
Fore
SplineSet
335 283 m 1,0,-1
 158 283 l 1,1,-1
 158 0 l 1,2,-1
 100 0 l 1,3,-1
 100 650 l 1,4,-1
 158 650 l 1,5,-1
 158 330 l 1,6,-1
 318 330 l 1,7,-1
 456 649 l 1,8,-1
 523 649 l 1,9,-1
 376 331 l 1,10,-1
 539 0 l 1,11,-1
 478 0 l 1,12,-1
 335 283 l 1,0,-1
EndSplineSet
Validated: 1
EndChar

StartChar: l
Encoding: 108 108 41
Width: 584
VWidth: 0
GlyphClass: 2
Flags: W
LayerCount: 3
Fore
SplineSet
100 649 m 5,0,-1
 158 649 l 1,1,-1
 158 57 l 1,2,-1
 484 57 l 1,3,-1
 484 0 l 1,4,-1
 100 0 l 1,5,-1
 100 649 l 5,0,-1
EndSplineSet
Validated: 1
EndChar

StartChar: m
Encoding: 109 109 42
Width: 850
VWidth: 0
GlyphClass: 2
Flags: W
LayerCount: 3
Fore
SplineSet
100 648 m 5,0,-1
 217 648 l 1,1,-1
 424 386 l 1,2,-1
 633 648 l 1,3,-1
 750 648 l 1,4,-1
 750 0 l 1,5,-1
 693 0 l 1,6,-1
 693 592 l 1,7,-1
 661 592 l 1,8,-1
 452 322 l 1,9,-1
 452 322 l 1,10,-1
 397 322 l 1,11,-1
 397 322 l 1,12,-1
 189 592 l 1,13,-1
 159 592 l 1,14,-1
 159 0 l 1,15,-1
 100 0 l 1,16,-1
 100 648 l 5,0,-1
EndSplineSet
Validated: 5
EndChar

StartChar: n
Encoding: 110 110 43
Width: 634
VWidth: 0
GlyphClass: 2
Flags: W
LayerCount: 3
Fore
SplineSet
100 649 m 5,0,-1
 215 649 l 1,1,-1
 428 379 l 1,2,-1
 477 379 l 1,3,-1
 477 649 l 1,4,-1
 534 649 l 1,5,-1
 534 0 l 1,6,-1
 477 0 l 1,7,-1
 477 328 l 1,8,-1
 395 328 l 1,9,-1
 395 329 l 1,10,-1
 194 593 l 1,11,-1
 158 593 l 1,12,-1
 158 0 l 1,13,-1
 100 0 l 1,14,-1
 100 649 l 5,0,-1
EndSplineSet
Validated: 1
EndChar

StartChar: nine
Encoding: 57 57 44
Width: 636
VWidth: 0
GlyphClass: 2
Flags: W
LayerCount: 3
Fore
SplineSet
316 -13 m 4,0,1
 258 -13 258 -13 209 17 c 1,2,3
 158 46 158 46 130 97 c 1,4,5
 100 146 100 146 100 206 c 1,6,-1
 158 206 l 1,7,8
 158 160 158 160 180 123 c 128,-1,9
 202 86 202 86 239 64 c 128,-1,10
 276 42 276 42 319 42 c 0,11,12
 363 42 363 42 400 64 c 128,-1,13
 437 86 437 86 459 123 c 128,-1,14
 481 160 481 160 481 204 c 2,15,-1
 481 302 l 1,16,17
 459 277 459 277 427 258 c 0,18,19
 376 228 376 228 316 228 c 0,20,21
 258 228 258 228 209 258 c 1,22,23
 158 287 158 287 130 338 c 1,24,25
 101 386 101 386 101 446 c 2,26,-1
 101 447 l 1,27,-1
 101 453 l 2,28,29
 101 515 101 515 130 563 c 1,30,31
 158 614 158 614 209 643 c 1,32,33
 259 673 259 673 316 673 c 0,34,35
 376 673 376 673 427 643 c 0,36,37
 477 614 477 614 507 563 c 0,38,39
 533 520 533 520 536 463 c 1,40,-1
 536 207 l 2,41,42
 536 147 536 147 507 97 c 0,43,44
 477 46 477 46 427 17 c 0,45,46
 376 -13 376 -13 316 -13 c 4,0,1
319 283 m 4,47,48
 363 283 363 283 400 305 c 128,-1,49
 437 327 437 327 459 364 c 0,50,51
 480 400 480 400 481 440 c 1,52,-1
 481 463 l 1,53,54
 480 501 480 501 459 537 c 0,55,56
 437 574 437 574 400 596 c 128,-1,57
 363 618 363 618 319 618 c 0,58,59
 276 618 276 618 239 596 c 128,-1,60
 202 574 202 574 180 537 c 128,-1,61
 158 500 158 500 158 456 c 2,62,-1
 158 447 l 2,63,64
 158 401 158 401 180 364 c 128,-1,65
 202 327 202 327 239 305 c 128,-1,66
 276 283 276 283 319 283 c 4,47,48
EndSplineSet
Validated: 1
EndChar

StartChar: o
Encoding: 111 111 45
Width: 688
VWidth: 0
GlyphClass: 2
Flags: W
LayerCount: 3
Fore
SplineSet
344 660 m 4,0,1
 442 660 442 660 516 588 c 0,2,3
 586 519 586 519 588 417 c 1,4,-1
 588 233 l 1,5,6
 586 130 586 130 516 61 c 0,7,8
 443 -10 443 -10 344 -10 c 128,-1,9
 245 -10 245 -10 172 61 c 0,10,11
 100 132 100 132 100 233 c 2,12,-1
 100 417 l 2,13,14
 100 518 100 518 172 589 c 0,15,16
 245 660 245 660 344 660 c 4,0,1
347 600 m 4,17,18
 266 600 266 600 213 548 c 0,19,20
 159 496 159 496 159 417 c 2,21,-1
 159 233 l 2,22,23
 159 154 159 154 213 102 c 0,24,25
 266 50 266 50 347 50 c 0,26,27
 427 50 427 50 478 102 c 0,28,29
 529 155 529 155 529 233 c 2,30,-1
 529 417 l 2,31,32
 529 495 529 495 478 548 c 0,33,34
 427 600 427 600 347 600 c 4,17,18
EndSplineSet
Validated: 1
EndChar

StartChar: one
Encoding: 49 49 46
Width: 353
VWidth: 0
GlyphClass: 2
Flags: W
LayerCount: 3
Fore
SplineSet
139 649 m 5,0,-1
 253 649 l 1,1,-1
 253 0 l 1,2,-1
 195 0 l 1,3,-1
 195 591 l 1,4,-1
 100 591 l 1,5,-1
 139 649 l 5,0,-1
EndSplineSet
Validated: 1
EndChar

StartChar: p
Encoding: 112 112 47
Width: 636
VWidth: 0
GlyphClass: 2
Flags: W
LayerCount: 3
Fore
SplineSet
316 649 m 6,0,1
 376 649 376 649 426 619 c 1,2,3
 477 591 477 591 506 540 c 1,4,5
 536 490 536 490 536 433 c 0,6,7
 536 373 536 373 506 322 c 0,8,9
 477 272 477 272 426 242 c 0,10,11
 376 213 376 213 316 213 c 2,12,-1
 158 213 l 1,13,-1
 158 0 l 1,14,-1
 100 0 l 1,15,-1
 100 649 l 1,16,-1
 316 649 l 6,0,1
158 268 m 5,17,-1
 319 268 l 2,18,19
 363 268 363 268 400 290 c 128,-1,20
 437 312 437 312 459 349 c 128,-1,21
 481 386 481 386 481 430 c 0,22,23
 481 473 481 473 459 510 c 128,-1,24
 437 547 437 547 400 569 c 128,-1,25
 363 591 363 591 319 591 c 2,26,-1
 158 591 l 1,27,-1
 158 268 l 5,17,-1
EndSplineSet
Validated: 1
EndChar

StartChar: q
Encoding: 113 113 48
Width: 731
VWidth: 0
GlyphClass: 2
Flags: W
LayerCount: 3
Fore
SplineSet
344 656 m 132,-1,1
 443 656 443 656 516 585 c 0,2,3
 586 516 586 516 588 413 c 1,4,-1
 588 229 l 2,5,6
 588 154 588 154 544 92 c 1,7,-1
 631 0 l 1,8,-1
 558 0 l 1,9,-1
 510 52 l 1,10,11
 440 -14 440 -14 344 -14 c 0,12,13
 245 -14 245 -14 172 57 c 0,14,15
 100 128 100 128 100 229 c 2,16,-1
 100 413 l 2,17,18
 100 514 100 514 172 585 c 0,19,0
 245 656 245 656 344 656 c 132,-1,1
346 596 m 132,-1,21
 266 596 266 596 213 544 c 0,22,23
 158 491 158 491 158 413 c 2,24,-1
 158 229 l 2,25,26
 158 151 158 151 213 98 c 0,27,28
 266 46 266 46 346 46 c 128,-1,29
 426 46 426 46 477 98 c 0,30,31
 529 152 529 152 529 229 c 2,32,-1
 529 413 l 2,33,34
 529 490 529 490 477 544 c 0,35,20
 426 596 426 596 346 596 c 132,-1,21
EndSplineSet
Validated: 1
EndChar

StartChar: r
Encoding: 114 114 49
Width: 636
VWidth: 0
GlyphClass: 2
Flags: W
LayerCount: 3
Fore
SplineSet
510 0 m 5,0,-1
 443 0 l 1,1,-1
 277 214 l 1,2,-1
 158 214 l 1,3,-1
 158 0 l 1,4,-1
 100 0 l 1,5,-1
 100 649 l 1,6,-1
 316 649 l 2,7,8
 376 649 376 649 426 619 c 1,9,10
 477 591 477 591 506 540 c 1,11,12
 536 490 536 490 536 433 c 0,13,14
 536 369 536 369 507 319 c 0,15,16
 479 270 479 270 433 241 c 1,17,18
 388 214 388 214 343 214 c 1,19,-1
 510 0 l 5,0,-1
319 268 m 6,20,21
 363 268 363 268 400 290 c 128,-1,22
 437 312 437 312 459 349 c 128,-1,23
 481 386 481 386 481 430 c 0,24,25
 481 473 481 473 459 510 c 128,-1,26
 437 547 437 547 400 569 c 128,-1,27
 363 591 363 591 319 591 c 2,28,-1
 158 591 l 1,29,-1
 158 268 l 1,30,-1
 319 268 l 6,20,21
EndSplineSet
Validated: 1
EndChar

StartChar: s
Encoding: 115 115 50
Width: 632
VWidth: 0
GlyphClass: 2
Flags: W
LayerCount: 3
Fore
SplineSet
425 649 m 5,0,-1
 425 594 l 1,1,-1
 315 594 l 2,2,3
 272 594 272 594 235 572 c 128,-1,4
 198 550 198 550 176 513 c 0,5,6
 155 478 155 478 155 433 c 0,7,8
 155 387 155 387 176 352 c 0,9,10
 198 315 198 315 235 293 c 128,-1,11
 272 271 272 271 315 271 c 1,12,-1
 315 216 l 1,13,14
 254 216 254 216 204 245 c 0,15,16
 158 271 158 271 128 324 c 0,17,18
 100 373 100 373 100 433 c 0,19,20
 100 490 100 490 129 540 c 0,21,22
 158 591 158 591 207 619 c 1,23,24
 256.5 649 256.5 649 315 649 c 2,25,-1
 425 649 l 5,0,-1
315 433 m 5,26,27
 374 433 374 433 424 404 c 128,-1,28
 474 375 474 375 503 325 c 128,-1,29
 532 275 532 275 532 216 c 0,30,31
 532 157.5 532 157.5 502 108 c 1,32,33
 473 58 473 58 423 29 c 128,-1,34
 373 0 373 0 315 0 c 2,35,-1
 154 0 l 1,36,-1
 154 55 l 1,37,-1
 315 55 l 2,38,39
 359 55 359 55 396 77 c 128,-1,40
 433 99 433 99 455 136 c 128,-1,41
 477 173 477 173 477 216 c 0,42,43
 477 260 477 260 455 297 c 128,-1,44
 433 334 433 334 396 356 c 128,-1,45
 359 378 359 378 315 378 c 1,46,-1
 315 433 l 5,26,27
EndSplineSet
Validated: 524289
EndChar

StartChar: seven
Encoding: 55 55 51
Width: 583
VWidth: 0
GlyphClass: 2
Flags: W
LayerCount: 3
Fore
SplineSet
100 649 m 5,0,-1
 483 649 l 1,1,-1
 305 0 l 1,2,-1
 238 0 l 1,3,-1
 401 591 l 1,4,-1
 100 591 l 1,5,-1
 100 649 l 5,0,-1
EndSplineSet
Validated: 1
EndChar

StartChar: six
Encoding: 54 54 52
Width: 636
VWidth: 0
GlyphClass: 2
Flags: W
LayerCount: 3
Fore
SplineSet
320 668 m 4,0,1
 377 668 377 668 427 638 c 1,2,3
 478 609 478 609 506 558 c 1,4,5
 536 508 536 508 536 449 c 1,6,-1
 478 449 l 1,7,8
 478 495 478 495 456 532 c 128,-1,9
 434 569 434 569 397 591 c 128,-1,10
 360 613 360 613 317 613 c 0,11,12
 273 613 273 613 236 591 c 128,-1,13
 199 569 199 569 177 532 c 128,-1,14
 155 495 155 495 155 451 c 2,15,-1
 155 353 l 1,16,17
 178 379 178 379 208 397 c 0,18,19
 259 427 259 427 319 427 c 0,20,21
 376 427 376 427 426 397 c 1,22,23
 477 368 477 368 505 317 c 1,24,25
 535 267.5 535 267.5 535 209 c 2,26,-1
 535 208 l 1,27,-1
 535 202 l 2,28,29
 535 142 535 142 505 92 c 1,30,31
 477 41 477 41 426 12 c 1,32,33
 376 -18 376 -18 319 -18 c 0,34,35
 259 -18 259 -18 208 12 c 0,36,37
 160 40 160 40 129 92 c 0,38,39
 103 135 103 135 100 192 c 1,40,-1
 100 448 l 2,41,42
 100 508 100 508 129 558 c 0,43,44
 159 609 159 609 209 638 c 0,45,46
 260 668 260 668 320 668 c 4,0,1
316 372 m 4,47,48
 272 372 272 372 235 350 c 0,49,50
 200 329 200 329 177 291 c 0,51,52
 156 255 156 255 155 215 c 1,53,-1
 155 192 l 1,54,55
 156 154 156 154 177 118 c 0,56,57
 200 80 200 80 235 59 c 0,58,59
 272 37 272 37 316 37 c 0,60,61
 359 37 359 37 396 59 c 128,-1,62
 433 81 433 81 455 118 c 128,-1,63
 477 155 477 155 477 199 c 2,64,-1
 477 208 l 2,65,66
 477 254 477 254 455 291 c 128,-1,67
 433 328 433 328 396 350 c 128,-1,68
 359 372 359 372 316 372 c 4,47,48
EndSplineSet
Validated: 524289
EndChar

StartChar: t
Encoding: 116 116 54
Width: 634
VWidth: 0
GlyphClass: 2
Flags: W
LayerCount: 3
Fore
SplineSet
100 649 m 5,0,-1
 534 649 l 1,1,-1
 534 591 l 1,2,-1
 344 591 l 1,3,-1
 344 0 l 1,4,-1
 286 0 l 1,5,-1
 286 590 l 1,6,-1
 100 590 l 1,7,-1
 100 649 l 5,0,-1
EndSplineSet
Validated: 1
EndChar

StartChar: three
Encoding: 51 51 55
Width: 636
VWidth: 0
GlyphClass: 2
Flags: W
LayerCount: 3
Fore
SplineSet
100 649 m 5,0,-1
 265 649 l 2,1,2
 320.5 649 320.5 649 361 610 c 0,3,4
 401 571 401 571 401 514 c 0,5,6
 401 467 401 467 370 430 c 1,7,8
 536 390 536 390 536 217 c 0,9,10
 536 128 536 128 472 64 c 128,-1,11
 408 0 408 0 319 0 c 2,12,-1
 153 0 l 1,13,-1
 153 56 l 1,14,-1
 319 56 l 2,15,16
 386 56 386 56 433 103 c 128,-1,17
 480 150 480 150 480 217 c 0,18,19
 480 285 480 285 433 332 c 0,20,21
 385 380 385 380 319 380 c 2,22,-1
 154 380 l 1,23,-1
 154 436 l 1,24,-1
 265 436 l 2,25,26
 345 436 345 436 345 514 c 0,27,28
 345 593 345 593 265 593 c 2,29,-1
 100 593 l 1,30,-1
 100 649 l 5,0,-1
EndSplineSet
Validated: 524289
EndChar

StartChar: two
Encoding: 50 50 56
Width: 586
VWidth: 0
GlyphClass: 2
Flags: W
LayerCount: 3
Fore
SplineSet
157 649 m 5,0,-1
 269 649 l 2,1,2
 360 649 360 649 423 586 c 128,-1,3
 486 523 486 523 486 432 c 0,4,5
 486 342 486 342 423 278 c 0,6,7
 360 213 360 213 270 213 c 2,8,-1
 229 213 l 1,9,-1
 179 58 l 1,10,-1
 486 58 l 1,11,-1
 486 0 l 1,12,-1
 100 0 l 1,13,-1
 189 263 l 1,14,-1
 189 263 l 1,15,-1
 189 263 l 1,16,-1
 264 263 l 2,17,18
 329 263 329 263 378 312 c 0,19,20
 425 359 425 359 425 427 c 0,21,22
 425 494 425 494 378 541 c 128,-1,23
 331 588 331 588 264 588 c 2,24,-1
 157 588 l 1,25,-1
 157 649 l 5,0,-1
EndSplineSet
Validated: 5
EndChar

StartChar: u
Encoding: 117 117 57
Width: 688
VWidth: 0
GlyphClass: 2
Flags: W
LayerCount: 3
Fore
SplineSet
529 649 m 5,0,-1
 588 649 l 1,1,-1
 588 231 l 1,2,3
 586.5 130.5 586.5 130.5 516 60 c 1,4,5
 442 -12 442 -12 344 -12 c 128,-1,6
 246 -12 246 -12 172 60 c 0,7,8
 100 130.5 100 130.5 100 231 c 1,9,-1
 100 231 l 1,10,-1
 100 649 l 1,11,-1
 158 649 l 1,12,-1
 158 231 l 1,13,-1
 158 231 l 1,14,15
 158 153 158 153 213 100 c 0,16,17
 266 48 266 48 346 48 c 128,-1,18
 426 48 426 48 477 100 c 0,19,20
 529 154 529 154 529 231 c 2,21,-1
 529 649 l 5,0,-1
EndSplineSet
Validated: 524293
EndChar

StartChar: v
Encoding: 118 118 59
Width: 747
VWidth: 0
GlyphClass: 2
Flags: W
LayerCount: 3
Fore
SplineSet
431 0 m 5,0,-1
 314 0 l 1,1,-1
 100 649 l 1,2,-1
 154 649 l 1,3,-1
 351 54 l 1,4,-1
 394 54 l 1,5,-1
 593 649 l 1,6,-1
 647 649 l 1,7,-1
 431 0 l 5,0,-1
EndSplineSet
Validated: 1
EndChar

StartChar: w
Encoding: 119 119 60
Width: 957
VWidth: 0
GlyphClass: 2
Flags: W
LayerCount: 3
Fore
SplineSet
857 649 m 1,0,-1
 647 0 l 1,1,-1
 537 0 l 1,2,-1
 483 156 l 1,3,-1
 429 0 l 1,4,-1
 319 0 l 1,5,-1
 100 649 l 1,6,-1
 154 649 l 1,7,-1
 356 54 l 1,8,-1
 392 54 l 1,9,-1
 455 246 l 1,10,-1
 319 649 l 1,11,-1
 374 649 l 1,12,-1
 483 329 l 1,13,-1
 593 649 l 1,14,-1
 647 649 l 1,15,-1
 511 246 l 1,16,-1
 575 54 l 1,17,-1
 611 54 l 1,18,-1
 803 649 l 1,19,-1
 857 649 l 1,0,-1
EndSplineSet
Validated: 1
EndChar

StartChar: x
Encoding: 120 120 61
Width: 635
VWidth: 0
GlyphClass: 2
Flags: W
LayerCount: 3
Fore
SplineSet
535 649 m 5,0,-1
 377 325 l 1,1,-1
 535 0 l 1,2,-1
 481 0 l 1,3,-1
 325 295 l 1,4,-1
 310 295 l 1,5,-1
 158 0 l 1,6,-1
 100 0 l 1,7,-1
 259 325 l 1,8,-1
 101 649 l 1,9,-1
 163 649 l 1,10,-1
 306 353 l 1,11,-1
 329 353 l 1,12,-1
 475 649 l 1,13,-1
 535 649 l 5,0,-1
EndSplineSet
Validated: 1
EndChar

StartChar: y
Encoding: 121 121 62
Width: 633
VWidth: 0
GlyphClass: 2
Flags: W
LayerCount: 3
Fore
SplineSet
100 649 m 5,0,-1
 166 649 l 1,1,-1
 317 343 l 1,2,-1
 471 649 l 1,3,-1
 533 648 l 1,4,-1
 346 266 l 1,5,-1
 346 2 l 1,6,-1
 346 1 l 1,7,-1
 346 0 l 1,8,-1
 288 0 l 1,9,-1
 288 2 l 1,10,-1
 288 266 l 1,11,-1
 100 649 l 5,0,-1
EndSplineSet
Validated: 1
EndChar

StartChar: z
Encoding: 122 122 63
Width: 637
VWidth: 0
GlyphClass: 2
Flags: W
LayerCount: 3
Fore
SplineSet
100 649 m 5,0,-1
 537 649 l 1,1,-1
 196 54 l 1,2,-1
 537 54 l 1,3,-1
 537 0 l 1,4,-1
 100 0 l 1,5,-1
 449 594 l 1,6,-1
 100 594 l 1,7,-1
 100 649 l 5,0,-1
EndSplineSet
Validated: 1
EndChar

StartChar: zero
Encoding: 48 48 64
Width: 636
VWidth: 0
GlyphClass: 2
Flags: W
LayerCount: 3
Fore
SplineSet
320 654 m 4,0,1
 377 654 377 654 427 624 c 1,2,3
 478 595 478 595 506 544 c 1,4,5
 536 495 536 495 536 434 c 2,6,-1
 536 213 l 2,7,8
 536 154 536 154 506 104 c 1,9,10
 478 53 478 53 427 24 c 1,11,12
 377 -6 377 -6 320 -6 c 0,13,14
 260 -6 260 -6 209 24 c 0,15,16
 159 53 159 53 129 104 c 0,17,18
 100 154 100 154 100 213 c 2,19,-1
 100 434 l 2,20,21
 100 494 100 494 129 544 c 0,22,23
 159 595 159 595 209 624 c 0,24,25
 260 654 260 654 320 654 c 4,0,1
317 599 m 4,26,27
 273 599 273 599 236 577 c 128,-1,28
 199 555 199 555 177 518 c 128,-1,29
 155 481 155 481 155 437 c 2,30,-1
 155 210 l 2,31,32
 155 167 155 167 177 130 c 128,-1,33
 199 93 199 93 236 71 c 128,-1,34
 273 49 273 49 317 49 c 0,35,36
 360 49 360 49 397 71 c 128,-1,37
 434 93 434 93 456 130 c 128,-1,38
 478 167 478 167 478 210 c 2,39,-1
 478 437 l 2,40,41
 478 481 478 481 456 518 c 128,-1,42
 434 555 434 555 397 577 c 128,-1,43
 360 599 360 599 317 599 c 4,26,27
EndSplineSet
Validated: 1
EndChar
